<?xml version="1.0" standalone="no"?>
<!DOCTYPE svg PUBLIC "-//W3C//DTD SVG 20010904//EN"
 "http://www.w3.org/TR/2001/REC-SVG-20010904/DTD/svg10.dtd">
<svg version="1.0" xmlns="http://www.w3.org/2000/svg"
 width="400.000000pt" height="400.000000pt" viewBox="0 0 400.000000 400.000000"
 preserveAspectRatio="xMidYMid meet">
<metadata>
Created by potrace 1.11, written by Peter Selinger 2001-2013
</metadata>
<g transform="translate(0.000000,400.000000) scale(0.100000,-0.100000)"
fill="#000000" stroke="none">
<path d="M370 3045 c0 -3 110 -176 245 -384 135 -208 245 -381 245 -383 0 -3
-19 -10 -42 -17 -192 -58 -280 -293 -180 -486 44 -87 137 -144 248 -153 73 -5
131 11 198 57 25 17 47 31 49 31 2 0 17 -18 32 -40 36 -52 63 -53 67 -2 l3 37
23 -37 24 -38 120 0 c110 0 120 1 113 17 -3 10 -6 105 -5 213 0 192 1 195 24
219 31 30 81 31 110 1 20 -19 21 -31 22 -233 l1 -212 76 -3 c43 -2 78 1 78 5
1 4 2 98 3 208 1 132 6 207 14 221 29 53 120 44 138 -12 5 -16 9 -118 9 -227
l-1 -198 79 3 79 3 0 206 c0 227 -4 256 -38 310 -74 118 -249 149 -340 61
l-22 -21 -18 21 c-49 54 -151 65 -239 24 -56 -25 -56 -25 -78 -6 -11 11 -29
20 -39 20 -17 0 -18 -13 -18 -172 l0 -173 -60 90 c-38 56 -60 99 -59 115 1 14
1 51 0 83 -1 49 -4 57 -20 57 -11 0 -28 -10 -38 -23 l-18 -24 -207 321 -208
321 620 3 c341 1 899 1 1240 0 l620 -3 -181 -280 c-100 -154 -183 -282 -184
-284 -2 -2 -28 -5 -57 -7 -105 -8 -212 -82 -260 -181 -34 -69 -40 -186 -14
-261 l14 -40 -273 -423 c-151 -233 -278 -425 -283 -427 -5 -1 -61 77 -123 174
-63 97 -119 178 -124 181 -6 2 -62 2 -124 1 l-112 -3 236 -365 c130 -201 240
-365 245 -365 5 0 165 241 355 535 324 500 348 535 373 532 155 -14 187 -13
225 6 43 23 46 18 14 -29 -27 -40 -71 -58 -148 -58 l-55 -1 -1 -81 0 -81 81 5
c101 6 163 33 227 98 85 86 90 113 92 461 2 295 2 298 -19 298 -11 0 -35 -16
-52 -36 -18 -20 -32 -33 -32 -30 0 3 124 197 275 431 151 233 275 427 275 430
0 3 -724 5 -1610 5 -885 0 -1610 -2 -1610 -5z m582 -934 c10 0 41 -35 69 -77
45 -68 51 -81 46 -116 -6 -45 -46 -102 -87 -123 -44 -23 -111 -19 -151 8 -99
65 -92 244 11 295 33 16 49 18 112 13z m1748 -71 c-27 -39 -34 -39 -12 0 9 16
21 30 25 30 5 0 -1 -13 -13 -30z m270 -36 c26 -78 -10 -173 -80 -209 -30 -16
-114 -21 -108 -7 10 26 162 252 168 252 5 0 14 -16 20 -36z"/>
<path d="M2294 2516 c-50 -22 -70 -80 -49 -146 10 -30 81 -60 118 -49 96 26
110 152 22 194 -40 18 -51 18 -91 1z"/>
<path d="M363 2462 c-21 -3 -21 -4 -21 -272 -1 -295 -2 -303 -62 -354 -40 -33
-68 -40 -136 -33 l-54 6 1 -85 c1 -81 2 -84 26 -90 72 -18 192 14 269 72 38
28 96 115 111 166 6 22 12 150 12 313 2 258 1 275 -16 276 -59 3 -111 4 -130
1z"/>
<path d="M3481 2269 c-53 -10 -126 -52 -164 -93 -126 -137 -107 -381 38 -491
144 -111 354 -75 454 77 105 159 56 381 -103 473 -61 35 -150 48 -225 34z
m157 -185 c44 -34 65 -79 65 -140 -1 -88 -52 -150 -133 -161 -51 -7 -82 1
-120 33 -59 50 -75 128 -41 206 21 51 37 66 88 83 49 17 100 10 141 -21z"/>
<path d="M2259 2218 c0 -41 0 -559 0 -575 1 -9 24 -13 80 -13 l79 0 0 310 0
310 -79 0 -79 0 -1 -32z"/>
</g>
</svg>
